<svg width="147" height="31" viewBox="0 0 147 31" fill="none" xmlns="http://www.w3.org/2000/svg">
<g clip-path="url(#clip0_1730_1412)">
<path d="M12.6044 28.8814C9.47591 28.8552 7.22185 27.6142 7.19919 27.6011C3.26238 25.3663 1.6514 22.3298 0.993217 20.1765C0.579875 18.8547 0.410646 17.4697 0.493679 16.0882H1.72789C1.72789 16.0882 1.9583 16.0882 2.34452 16.1313L2.47011 16.1454V15.5899C2.47011 14.6618 2.47011 13.7017 2.47011 12.7567C2.47011 12.6368 2.49844 12.5694 2.66936 12.5066C3.43425 12.2135 4.24446 11.8941 5.14722 11.5297C5.21389 11.5004 5.2858 11.4844 5.35874 11.4829C5.43208 11.4846 5.50422 11.5018 5.57027 11.5335C5.65772 11.5825 5.75392 11.6143 5.85356 11.6271C6.03486 11.6271 6.03486 11.4473 6.03486 11.274V10.9134C6.03486 10.566 6.03486 10.2185 6.03486 9.87099C6.03486 9.79419 6.05469 9.74642 6.17179 9.70147L6.19634 9.6921C7.02638 9.37084 7.88476 9.03647 8.72141 8.69929C8.79723 8.66824 8.8783 8.65172 8.96032 8.65059C9.05867 8.65246 9.15539 8.6758 9.24361 8.71896C9.33804 8.76111 9.42775 8.79951 9.52124 8.83697L9.59395 8.86694C9.63693 8.88668 9.68352 8.89751 9.73087 8.89879C9.75855 8.89893 9.78594 8.89329 9.81128 8.88225C9.83661 8.87121 9.85932 8.855 9.87794 8.83469C9.89655 8.81437 9.91064 8.7904 9.91931 8.76433C9.92797 8.73826 9.93101 8.71068 9.92823 8.68337C9.92823 8.62905 9.92823 8.57566 9.92823 8.52133V7.33277C9.92823 6.08801 9.92823 4.80392 9.92257 3.53294C9.92257 3.33906 9.96695 3.22386 10.2191 3.12926C10.8518 2.89136 11.4873 2.63754 12.1011 2.39214L12.7158 2.14675C12.7596 2.1289 12.8064 2.11937 12.8537 2.11865C12.8991 2.11882 12.9441 2.12806 12.9859 2.14581L13.34 2.28162C14.086 2.57947 14.8575 2.88855 15.6205 3.18639C15.7659 3.24259 15.7924 3.3044 15.7914 3.40462C15.7867 4.08085 15.7914 4.75709 15.7914 5.43332V5.93909C15.7914 6.04774 15.7914 6.25005 15.985 6.25005C16.0662 6.24278 16.1454 6.22154 16.2192 6.1873L16.3627 6.12642C16.4071 6.10675 16.4506 6.08708 16.4959 6.07022C16.5418 6.05171 16.5908 6.04187 16.6404 6.04118C16.6916 6.04173 16.7422 6.0519 16.7896 6.07116L17.2098 6.23694C17.9426 6.52541 18.6753 6.81264 19.4081 7.09862C19.5573 7.15575 19.5838 7.22225 19.5828 7.33184C19.5771 8.38084 19.5828 9.44764 19.5828 10.4789V11.4801C19.5828 11.5094 19.5828 11.5385 19.5828 11.5672C19.5797 11.6009 19.5835 11.6349 19.594 11.6671C19.6046 11.6993 19.6217 11.7291 19.6442 11.7545C19.6627 11.7733 19.6849 11.7879 19.7095 11.7976C19.734 11.8073 19.7604 11.8118 19.7868 11.8107C19.8409 11.8086 19.8941 11.7962 19.9435 11.7742C20.0465 11.7311 20.1503 11.6908 20.2542 11.6506C20.3789 11.6009 20.5045 11.5569 20.6319 11.5007C20.6753 11.4811 20.7222 11.4706 20.7698 11.4698C20.8198 11.4709 20.8692 11.4814 20.9152 11.5007C21.7245 11.8238 22.5866 12.1676 23.445 12.5001C23.6225 12.5694 23.6547 12.6434 23.6537 12.7642C23.6462 13.6587 23.6471 14.5681 23.648 15.4476V16.0845H24.7236C24.8072 17.466 24.6379 18.8511 24.2241 20.1728C23.5631 22.327 21.9577 25.3626 18.0181 27.5983C17.9964 27.6104 15.7423 28.8514 12.6138 28.8777M14.1247 27.2161L14.2248 27.4034C14.2683 27.3969 18.5686 26.7169 20.8227 23.7638C20.9275 23.6223 23.3723 20.303 23.4025 17.8519C23.4139 17.7987 23.4144 17.7438 23.4042 17.6905C23.394 17.6371 23.3732 17.5863 23.343 17.5409C23.3174 17.5102 23.285 17.4857 23.2483 17.4695C23.2116 17.4532 23.1717 17.4456 23.1315 17.4473C23.1081 17.4473 23.0847 17.4495 23.0616 17.4538L22.9851 17.4613C21.1419 17.6421 15.0086 18.7997 13.4089 26.2374L13.5931 26.3469L19.5365 21.3745L14.1247 27.2161ZM1.81382 17.8575C1.84309 20.3086 4.2879 23.628 4.39272 23.7684C6.64961 26.7225 10.9481 27.4025 10.9906 27.4091L11.0907 27.2217L5.67508 21.3735L11.6157 26.346L11.7989 26.2364C10.1992 18.7988 4.07071 17.643 2.23026 17.466L2.15377 17.4585C2.13105 17.4542 2.10797 17.452 2.08483 17.4519C2.04455 17.4503 2.00442 17.4579 1.96757 17.4742C1.93073 17.4904 1.89815 17.5148 1.87237 17.5456C1.84249 17.5911 1.82194 17.6419 1.81189 17.6953C1.80184 17.7486 1.8025 17.8034 1.81382 17.8566M12.6195 23.5839C12.6454 23.584 12.6709 23.5766 12.6926 23.5626C12.7144 23.5487 12.7317 23.5287 12.7423 23.5053C12.7999 23.3844 12.8594 23.2655 12.9188 23.1484L12.9311 23.1241V2.61225C12.934 2.58049 12.9303 2.54847 12.9203 2.51819C12.9102 2.4879 12.894 2.45998 12.8726 2.43616C12.8547 2.41886 12.8336 2.40523 12.8104 2.39607C12.7873 2.3869 12.7625 2.38239 12.7375 2.38278C12.689 2.38478 12.6412 2.3959 12.5968 2.41556C11.8722 2.70091 11.1461 2.98658 10.4183 3.27256C10.2115 3.35311 10.2115 3.51139 10.2115 3.6163C10.2115 4.71213 10.2115 5.80734 10.2115 6.90193V7.3131C10.2115 7.45172 10.2115 7.59409 10.2115 7.7299C10.2115 8.06708 10.2115 8.41643 10.2049 8.76017C10.1964 9.00369 10.3097 9.15448 10.5704 9.24721C10.8036 9.33057 11.0368 9.42423 11.2616 9.51414C11.4061 9.57128 11.5506 9.62935 11.695 9.68461C11.8395 9.73987 11.8546 9.7867 11.8546 9.87193C11.8546 11.6655 11.8546 18.5993 11.8546 22.3289V22.3588L11.8697 22.3851C12.086 22.7532 12.2881 23.1344 12.4694 23.509C12.4801 23.5321 12.4973 23.5517 12.5189 23.5654C12.5404 23.5792 12.5655 23.5866 12.5912 23.5867H12.6223M9.06325 8.88193C9.03907 8.882 9.01516 8.887 8.99301 8.89661C8.97085 8.90622 8.95092 8.92024 8.93446 8.9378C8.91799 8.95536 8.90534 8.97609 8.89728 8.9987C8.88922 9.02131 8.88593 9.04533 8.88761 9.06925C8.88761 9.12358 8.88761 9.1779 8.88761 9.23222V18.8793L8.92916 18.913C9.88156 19.698 10.7146 20.6154 11.4023 21.6367L11.6044 21.5758C11.6044 15.0992 11.6044 11.3902 11.611 10.2428C11.611 9.96184 11.4901 9.79981 11.1889 9.6921C10.7583 9.53756 10.3277 9.36616 9.91124 9.20132C9.73276 9.13107 9.55523 9.05989 9.37676 8.99058L9.26533 8.94937L9.16335 8.9119C9.13093 8.89871 9.09639 8.89141 9.06136 8.89036M16.5261 6.29875C16.4789 6.30048 16.4325 6.31096 16.3892 6.32966L16.0039 6.4842C15.4534 6.70524 14.8849 6.93378 14.3211 7.1492C14.0917 7.23724 13.9944 7.37305 13.9944 7.60158C13.9944 10.1492 13.9944 18.0532 13.9944 21.0298L14.1974 21.0963C14.9014 20.1574 15.7345 19.321 16.6725 18.6115L16.7168 18.5777V6.66778C16.7168 6.61439 16.7168 6.56007 16.7168 6.50668C16.7168 6.34746 16.6158 6.29032 16.528 6.29032M5.44373 11.6993C5.25487 11.6993 5.25487 11.8931 5.25487 12.0346V16.5753C5.25624 16.6268 5.25467 16.6784 5.25015 16.7298L5.23787 16.8178L5.32286 16.8497C6.20687 17.1773 7.05127 17.6017 7.84037 18.1151L8.01602 18.0214C8.01602 16.6006 8.01602 13.9546 8.02074 13.0105C8.02074 12.7202 7.83943 12.6106 7.65907 12.5422C7.28135 12.397 6.89324 12.2434 6.5259 12.0954C6.25583 11.988 5.98544 11.881 5.71474 11.7742C5.63165 11.7342 5.54218 11.7089 5.45034 11.6993M20.6433 11.6993C20.5867 11.7018 20.5314 11.7162 20.4808 11.7414L20.1976 11.8547C19.579 12.0983 18.9615 12.3427 18.3401 12.5806C18.2616 12.6051 18.1941 12.6558 18.1492 12.7241C18.1042 12.7925 18.0846 12.8742 18.0936 12.9553C18.0936 13.8722 18.0936 15.9899 18.0936 17.4903V17.6777L18.2608 17.584C19.059 17.1535 19.901 16.8081 20.7726 16.5537L20.8538 16.5303V12.1039C20.8538 12.0505 20.8538 11.9962 20.8538 11.9418C20.8573 11.9117 20.8543 11.8812 20.845 11.8523C20.8357 11.8234 20.8203 11.7968 20.7999 11.7742C20.7795 11.7516 20.7544 11.7336 20.7264 11.7213C20.6985 11.7091 20.6682 11.7028 20.6376 11.703" fill="#00AD3B"/>
<path d="M28.7444 0V31" stroke="#131313" stroke-miterlimit="10"/>
<path d="M34.6761 19.1899C34.11 18.9566 33.6199 18.5728 33.2596 18.0809C32.9131 17.5907 32.7328 17.0039 32.745 16.4053H34.7082C34.7368 16.8567 34.9397 17.2797 35.2748 17.5864C35.6122 17.8949 36.0869 18.0491 36.6988 18.0491C37.3283 18.0491 37.8215 17.8974 38.1785 17.5939C38.3504 17.4508 38.4874 17.2709 38.5793 17.0679C38.6712 16.8648 38.7156 16.6438 38.7092 16.4213C38.7234 16.087 38.6051 15.7606 38.3796 15.5118C38.1507 15.2719 37.8702 15.0863 37.559 14.9686C37.114 14.8051 36.66 14.6665 36.1992 14.5536C35.5932 14.4034 34.9992 14.209 34.422 13.972C33.96 13.7705 33.558 13.4544 33.2549 13.0541C32.9338 12.6389 32.773 12.0857 32.7723 11.3945C32.7597 10.8005 32.9278 10.2166 33.2549 9.71885C33.5906 9.23002 34.0619 8.8481 34.6119 8.61927C35.2475 8.35309 35.9325 8.22257 36.6223 8.2362C37.7051 8.2362 38.5927 8.505 39.2852 9.04262C39.9777 9.58024 40.3611 10.317 40.4354 11.253H38.4089C38.3916 11.0487 38.3309 10.8504 38.231 10.6709C38.1311 10.4914 37.9942 10.3349 37.8291 10.2115C37.4753 9.92366 37.0088 9.78004 36.4296 9.78067C35.904 9.78067 35.4749 9.91367 35.1426 10.1797C34.8102 10.4457 34.644 10.8309 34.644 11.3354C34.638 11.4886 34.6626 11.6415 34.7164 11.7852C34.7702 11.9289 34.8521 12.0606 34.9575 12.1728C35.1816 12.4011 35.4533 12.5781 35.7535 12.6917C36.1861 12.8541 36.6275 12.9927 37.0755 13.1066C37.6922 13.2672 38.2971 13.4697 38.8858 13.7126C39.3567 13.9191 39.7666 14.2415 40.0765 14.6492C40.4033 15.0694 40.567 15.6314 40.5676 16.3351C40.5671 16.8979 40.4082 17.4493 40.1087 17.9273C39.785 18.4443 39.3227 18.8616 38.7734 19.1327C38.1873 19.4293 37.4973 19.5776 36.7035 19.5776C36.0077 19.5885 35.3172 19.4555 34.6761 19.1871" fill="#00AD3B"/>
<path d="M50.7651 10.6798V19.4727H48.9303V18.4322C48.6281 18.8037 48.2392 19.0966 47.7971 19.2854C47.3291 19.4933 46.8217 19.5994 46.3089 19.5964C45.6579 19.6073 45.0142 19.4593 44.4344 19.1655C43.8814 18.8794 43.4273 18.4358 43.1304 17.8917C42.8156 17.3298 42.6582 16.6488 42.6582 15.849V10.6798H44.476V15.5792C44.476 16.3666 44.6743 16.9704 45.0709 17.3906C45.4675 17.8109 46.0092 18.021 46.6961 18.021C47.3822 18.021 47.9268 17.8109 48.3297 17.3906C48.7326 16.9704 48.9334 16.3666 48.9322 15.5792V10.6798H50.7651Z" fill="#00AD3B"/>
<path d="M54.5215 19.2377C54.0034 19.0147 53.552 18.6631 53.2108 18.2167C52.8952 17.7987 52.7169 17.2945 52.7 16.7725H54.5989C54.6147 16.9581 54.6711 17.1381 54.7643 17.2999C54.8574 17.4616 54.985 17.6013 55.1381 17.7091C55.4649 17.9589 55.8741 18.0837 56.3657 18.0837C56.8807 18.0837 57.2801 17.9854 57.5641 17.7887C57.6945 17.7088 57.8022 17.5972 57.8769 17.4644C57.9516 17.3316 57.9909 17.1821 57.9909 17.0301C57.9909 16.7004 57.8335 16.4556 57.5187 16.2958C57.204 16.1359 56.7025 15.9604 56.0145 15.7694C55.4628 15.6258 54.9201 15.4501 54.3893 15.243C53.9698 15.0717 53.5975 14.8036 53.3034 14.4609C52.998 14.11 52.8454 13.6473 52.8454 13.0729C52.843 12.6112 52.9895 12.1609 53.2637 11.7878C53.5682 11.3775 53.9813 11.0588 54.4573 10.8671C55.0257 10.6342 55.6365 10.52 56.2515 10.5318C57.2587 10.5318 58.0712 10.7844 58.6887 11.2896C59.3063 11.7947 59.6362 12.4837 59.6784 13.3567H57.8445C57.8353 13.1747 57.7874 12.9968 57.7041 12.8344C57.6208 12.672 57.5039 12.5289 57.361 12.4144C57.0721 12.1812 56.6802 12.0632 56.1873 12.0632C55.6943 12.0632 55.3374 12.1569 55.0768 12.3348C54.9565 12.4125 54.858 12.5191 54.7904 12.6447C54.7229 12.7703 54.6885 12.9109 54.6905 13.0532C54.6885 13.1641 54.7104 13.2742 54.7549 13.376C54.7993 13.4778 54.8653 13.5689 54.9483 13.6433C55.1297 13.8088 55.343 13.9363 55.5754 14.0179C55.8215 14.1078 56.1863 14.2221 56.6698 14.3607C57.2096 14.4966 57.7391 14.6699 58.2544 14.8796C58.6654 15.0538 59.0313 15.3183 59.3243 15.6532C59.6245 15.9942 59.78 16.4462 59.7907 17.0095C59.7971 17.4888 59.6507 17.9578 59.3724 18.3497C59.072 18.7608 58.6629 19.0814 58.1901 19.2761C57.6221 19.5102 57.011 19.6241 56.396 19.6104C55.7512 19.6212 55.1117 19.4934 54.5215 19.2358" fill="#00AD3B"/>
<path d="M63.91 12.1607V17.0311C63.91 17.3617 63.9874 17.593 64.1432 17.742C64.299 17.8909 64.5644 17.9574 64.9393 17.9574H66.0658V19.4728H64.6182C63.7922 19.4728 63.1592 19.2814 62.7192 18.8987C62.2792 18.5159 62.0588 17.8934 62.0582 17.0311V12.1607H61.01V10.6799H62.0563V8.49011H63.9062V10.6799H66.062V12.1644L63.91 12.1607Z" fill="#00AD3B"/>
<path d="M67.6985 12.687C68.0442 12.0309 68.5661 11.4824 69.2066 11.1022C69.8471 10.722 70.5811 10.5249 71.3274 10.5328C71.9602 10.5182 72.587 10.6578 73.1528 10.9393C73.6382 11.1826 74.064 11.5285 74.4002 11.9527V10.6798H76.2501V19.4727H74.4002V18.1615C74.062 18.6001 73.6273 18.9564 73.1292 19.203C72.5127 19.5021 71.8306 19.6435 71.1449 19.6142C70.4593 19.5849 69.7919 19.3859 69.2037 19.0353C68.5623 18.6383 68.0419 18.0756 67.6985 17.4075C67.3205 16.6747 67.1301 15.8609 67.1442 15.0379C67.1289 14.2237 67.3195 13.4187 67.6985 12.6963M74.0253 13.4943C73.7961 13.0705 73.4537 12.7173 73.0357 12.4734C72.6348 12.2407 72.1781 12.1194 71.7136 12.1222C71.2417 12.118 70.7776 12.2412 70.3709 12.4787C69.9642 12.7161 69.6302 13.0588 69.4048 13.47C69.1427 13.9525 69.0125 14.4947 69.0271 15.0426C69.0151 15.5965 69.145 16.1443 69.4048 16.6348C69.6333 17.0683 69.9789 17.4303 70.403 17.6801C70.799 17.9154 71.252 18.0397 71.7136 18.0397C72.1781 18.0426 72.6348 17.9212 73.0357 17.6885C73.4552 17.4423 73.7977 17.0857 74.0253 16.6582C74.2869 16.1684 74.417 15.6201 74.403 15.066C74.4169 14.5158 74.2868 13.9714 74.0253 13.4859" fill="#00AD3B"/>
<path d="M78.7628 9.18122C78.596 9.01824 78.4822 8.80956 78.4358 8.58196C78.3895 8.35436 78.4128 8.11822 78.5027 7.90383C78.5926 7.68944 78.745 7.50659 78.9405 7.37873C79.1359 7.25087 79.3653 7.18384 79.5994 7.18623C79.7521 7.18338 79.9037 7.21167 80.0448 7.26935C80.186 7.32703 80.3137 7.41287 80.42 7.52154C80.637 7.7442 80.7582 8.04174 80.7582 8.35138C80.7582 8.66102 80.637 8.95855 80.42 9.18122C80.3135 9.28958 80.1858 9.37515 80.0446 9.43266C79.9035 9.49017 79.752 9.51839 79.5994 9.51559C79.4444 9.5193 79.2902 9.49156 79.1463 9.43406C79.0024 9.37656 78.8719 9.29052 78.7628 9.18122ZM80.5003 19.4736H78.6683V10.6798H80.5022L80.5003 19.4736Z" fill="#00AD3B"/>
<path d="M89.2578 10.9608C89.8093 11.2475 90.2608 11.6924 90.5534 12.2374C90.8644 12.7994 91.0199 13.4803 91.0199 14.2802V19.4662H89.2021V14.5537C89.2021 13.7669 89.0035 13.1634 88.6062 12.7432C88.209 12.323 87.6663 12.1129 86.9783 12.1129C86.2908 12.1129 85.7463 12.323 85.3446 12.7432C84.943 13.1634 84.7418 13.7669 84.7412 14.5537V19.469H82.9111V10.6799H84.745V11.682C85.0553 11.3143 85.4496 11.0253 85.8951 10.8391C86.3646 10.6364 86.8714 10.5331 87.3834 10.5356C88.0344 10.5245 88.6781 10.6724 89.2578 10.9665" fill="#00AD3B"/>
<path d="M95.1861 8.37769H93.3523V19.4691H95.1861V8.37769Z" fill="#131313"/>
<path d="M103.948 10.9608C104.499 11.2474 104.951 11.6923 105.243 12.2374C105.553 12.7994 105.709 13.4803 105.71 14.2802V19.4662H103.891V14.5537C103.891 13.7669 103.693 13.1634 103.296 12.7432C102.899 12.323 102.358 12.1129 101.671 12.1129C100.985 12.1129 100.44 12.323 100.038 12.7432C99.6358 13.1634 99.4347 13.7669 99.4347 14.5537V19.469H97.6008V10.6798H99.4347V11.682C99.745 11.3143 100.139 11.0253 100.585 10.8391C101.054 10.6362 101.561 10.5329 102.073 10.5356C102.724 10.5247 103.368 10.6726 103.948 10.9664" fill="#131313"/>
<path d="M109.386 19.2377C108.867 19.0146 108.416 18.663 108.074 18.2168C107.757 17.799 107.578 17.2949 107.559 16.7725H109.458C109.474 16.958 109.53 17.1379 109.623 17.2997C109.716 17.4614 109.844 17.6011 109.997 17.7091C110.352 17.9673 110.784 18.0993 111.224 18.0838C111.739 18.0838 112.138 17.9854 112.422 17.7887C112.553 17.7089 112.661 17.5973 112.735 17.4645C112.81 17.3317 112.849 17.1822 112.849 17.0301C112.849 16.7004 112.692 16.4556 112.377 16.2958C112.062 16.1359 111.561 15.9605 110.873 15.7694C110.321 15.6259 109.779 15.4501 109.248 15.243C108.828 15.0717 108.456 14.8036 108.162 14.461C107.856 14.11 107.703 13.6474 107.703 13.0729C107.701 12.6112 107.848 12.1609 108.122 11.7879C108.428 11.3782 108.843 11.0608 109.32 10.8709C109.889 10.638 110.5 10.5238 111.115 10.5356C112.122 10.5356 112.934 10.7882 113.552 11.2933C114.169 11.7985 114.499 12.4875 114.542 13.3604H112.707C112.698 13.1786 112.65 13.0006 112.567 12.8383C112.484 12.6759 112.367 12.5328 112.224 12.4182C111.935 12.185 111.543 12.067 111.049 12.067C110.556 12.067 110.2 12.1606 109.94 12.3386C109.82 12.4163 109.721 12.5229 109.654 12.6485C109.586 12.7741 109.552 12.9146 109.554 13.057C109.552 13.1679 109.574 13.278 109.618 13.3798C109.663 13.4816 109.728 13.5727 109.812 13.647C109.993 13.8126 110.206 13.9401 110.439 14.0217C110.685 14.1116 111.049 14.2259 111.533 14.3645C112.073 14.5005 112.602 14.6739 113.118 14.8834C113.529 15.0576 113.894 15.3221 114.187 15.657C114.488 15.9979 114.643 16.45 114.654 17.0132C114.66 17.4925 114.514 17.9616 114.236 18.3535C113.935 18.7644 113.526 19.0849 113.053 19.2798C112.485 19.514 111.874 19.6279 111.259 19.6142C110.614 19.6251 109.975 19.4973 109.385 19.2396" fill="#131313"/>
<path d="M116.731 9.18132C116.564 9.01834 116.45 8.80967 116.404 8.58207C116.357 8.35447 116.381 8.11832 116.47 7.90394C116.56 7.68955 116.713 7.50669 116.908 7.37883C117.104 7.25098 117.333 7.18394 117.567 7.18634C117.72 7.1836 117.871 7.21194 118.013 7.26962C118.154 7.32729 118.281 7.41307 118.388 7.52165C118.605 7.74431 118.726 8.04184 118.726 8.35148C118.726 8.66112 118.605 8.95866 118.388 9.18132C118.281 9.2896 118.153 9.37511 118.012 9.43261C117.871 9.49011 117.72 9.51839 117.567 9.51569C117.412 9.51974 117.258 9.49215 117.114 9.43464C116.97 9.37712 116.839 9.2909 116.731 9.18132ZM118.468 19.4738H116.634V10.6799H118.468V19.4738Z" fill="#131313"/>
<path d="M126.279 10.9393C126.768 11.1768 127.195 11.5237 127.526 11.9527V10.6798H129.378V19.617C129.391 20.3689 129.214 21.1122 128.863 21.7787C128.523 22.4083 128.006 22.9266 127.375 23.2707C126.725 23.6322 125.95 23.8133 125.05 23.8139C123.848 23.8139 122.85 23.5345 122.057 22.9757C121.677 22.7193 121.358 22.3824 121.124 21.9892C120.89 21.596 120.746 21.1562 120.704 20.7016H122.523C122.67 21.1691 122.988 21.5649 123.415 21.8105C123.908 22.1027 124.475 22.2496 125.049 22.2339C125.788 22.2339 126.386 22.0103 126.843 21.5633C127.3 21.1162 127.528 20.4674 127.527 19.617V18.1446C127.189 18.582 126.756 18.9391 126.261 19.1899C125.703 19.4784 125.081 19.624 124.451 19.6132C123.705 19.6203 122.972 19.4184 122.336 19.0307C121.692 18.6351 121.169 18.0721 120.825 17.4028C120.446 16.6703 120.256 15.8563 120.27 15.0332C120.255 14.2189 120.446 13.4139 120.825 12.6917C121.171 12.0357 121.693 11.4873 122.333 11.1071C122.973 10.7269 123.707 10.5298 124.453 10.5375C125.086 10.5254 125.712 10.6649 126.279 10.944M127.148 13.4897C126.919 13.0658 126.577 12.7126 126.159 12.4688C125.758 12.2361 125.301 12.1148 124.837 12.1175C124.373 12.1146 123.917 12.2328 123.515 12.4603C123.097 12.6983 122.755 13.0462 122.525 13.4653C122.263 13.9478 122.133 14.49 122.147 15.0379C122.135 15.5918 122.265 16.1397 122.525 16.6301C122.753 17.0637 123.099 17.4256 123.523 17.6754C123.919 17.9108 124.372 18.0351 124.834 18.035C125.298 18.0378 125.755 17.9165 126.156 17.6838C126.575 17.4376 126.918 17.081 127.145 16.6535C127.407 16.1637 127.537 15.6154 127.523 15.0613C127.537 14.5111 127.407 13.9667 127.145 13.4812" fill="#131313"/>
<path d="M138.185 10.9609C138.722 11.254 139.158 11.6982 139.44 12.2375C139.746 12.7995 139.899 13.4804 139.899 14.2803V19.4663H138.08V14.5537C138.08 13.767 137.882 13.1635 137.485 12.7433C137.089 12.323 136.547 12.1129 135.86 12.1129C135.174 12.1129 134.63 12.323 134.228 12.7433C133.825 13.1635 133.625 13.767 133.627 14.5537V19.4691H131.792V7.66028H133.627V11.698C133.945 11.3203 134.351 11.0246 134.809 10.8363C135.306 10.6302 135.84 10.5269 136.378 10.5329C137.008 10.5217 137.631 10.67 138.188 10.9637" fill="#131313"/>
<path d="M144.371 12.1607V17.0311C144.371 17.3617 144.45 17.593 144.604 17.742C144.759 17.8909 145.026 17.9574 145.401 17.9574H146.527V19.4728H145.079C144.254 19.4728 143.621 19.2814 143.181 18.8987C142.742 18.5159 142.522 17.8934 142.52 17.0311V12.1607H141.474V10.6799H142.52V8.49011H144.37V10.6799H146.526V12.1644L144.371 12.1607Z" fill="#131313"/>
</g>
<defs>
<clipPath id="clip0_1730_1412">
<rect width="146.054" height="31" fill="white" transform="translate(0.473145)"/>
</clipPath>
</defs>
</svg>
