<svg width="21" height="24" viewBox="0 0 21 24" fill="none" xmlns="http://www.w3.org/2000/svg">
<path d="M0 21.2467V4.28721C0.0192981 4.25117 0.034958 4.21333 0.0467597 4.17423C0.366481 2.48358 1.36529 1.40019 3.01626 0.895817C3.19111 0.84538 3.37207 0.807552 3.54946 0.763672H8.06216C8.10807 0.783427 8.15571 0.798962 8.20448 0.810076C9.03891 0.925819 9.81225 1.30932 10.4064 1.90204C13.3366 4.80352 16.2636 7.70736 19.1873 10.6135C19.279 10.6999 19.3515 10.8043 19.4001 10.9201C19.4487 11.0359 19.4723 11.1605 19.4694 11.2859C19.4657 14.4883 19.4645 17.6907 19.4659 20.8931C19.4684 21.2102 19.4075 21.5246 19.2867 21.8181C19.1659 22.1116 18.9875 22.3784 18.762 22.603C18.5364 22.8276 18.2682 23.0055 17.9728 23.1265C17.6775 23.2474 17.3608 23.309 17.0413 23.3076C12.1677 23.3106 7.29412 23.3106 2.42053 23.3076C1.6962 23.3076 1.09895 23.0206 0.609452 22.4945C0.278548 22.1389 0.120976 21.7027 0 21.2467ZM13.0074 16.4143C12.953 16.0759 12.9241 15.7314 12.8402 15.4005C12.3126 13.317 11.1445 11.5673 9.87171 9.87867C9.58096 9.49283 9.03606 9.53066 8.73413 9.92609C7.72668 11.245 6.82343 12.629 6.20076 14.1724C5.84851 15.0475 5.59792 15.9432 5.71635 16.9116C5.94153 18.745 7.61994 20.1744 9.47778 20.0861C11.4373 19.9933 12.9861 18.3713 13.0074 16.4143ZM5.67874 6.36623V6.40053C6.2277 6.40053 6.77667 6.41263 7.32512 6.3975C7.74795 6.3893 8.15102 6.21836 8.44921 5.92078C8.7474 5.6232 8.91737 5.22228 8.92322 4.80268C8.92643 4.38285 8.76345 3.97854 8.46935 3.67672C8.17525 3.37489 7.77351 3.19965 7.35054 3.18869C6.23634 3.16549 5.12181 3.16549 4.00693 3.18869C3.15604 3.20534 2.49728 3.86606 2.43679 4.70483C2.38037 5.4972 2.95526 6.2588 3.78379 6.35463C4.40748 6.42423 5.04641 6.36623 5.67874 6.36623Z" fill="#FFBE19"/>
<path d="M18.5509 7.65501L14.1658 3.3038C14.6741 2.79338 15.1824 2.25774 15.7186 1.75084C16.0323 1.45478 16.4953 1.50521 16.8328 1.83659C17.5226 2.51446 18.2052 3.19839 18.893 3.87879C19.263 4.24647 19.6356 4.61113 20.0021 4.98185C20.3843 5.36819 20.3879 5.8186 20.0092 6.20243C19.5248 6.69217 19.0348 7.17536 18.5509 7.65501Z" fill="#FFBE19"/>
</svg>
