<svg width="16" height="19" viewBox="0 0 16 19" fill="none" xmlns="http://www.w3.org/2000/svg">
<path d="M8.00008 4.66667C8.46032 4.66667 8.83341 4.29357 8.83341 3.83333C8.83341 3.3731 8.46032 3 8.00008 3C7.53984 3 7.16675 3.3731 7.16675 3.83333C7.16675 4.29357 7.53984 4.66667 8.00008 4.66667Z" stroke="black" stroke-width="2" stroke-linecap="round" stroke-linejoin="round"/>
<path d="M8.00008 10.3333C8.46032 10.3333 8.83341 9.96023 8.83341 9.49999C8.83341 9.03975 8.46032 8.66666 8.00008 8.66666C7.53984 8.66666 7.16675 9.03975 7.16675 9.49999C7.16675 9.96023 7.53984 10.3333 8.00008 10.3333Z" stroke="black" stroke-width="2" stroke-linecap="round" stroke-linejoin="round"/>
<path d="M8.00008 16C8.46032 16 8.83341 15.6269 8.83341 15.1667C8.83341 14.7064 8.46032 14.3333 8.00008 14.3333C7.53984 14.3333 7.16675 14.7064 7.16675 15.1667C7.16675 15.6269 7.53984 16 8.00008 16Z" stroke="black" stroke-width="2" stroke-linecap="round" stroke-linejoin="round"/>
</svg>
